<svg width="24" height="24" viewBox="0 0 24 24" fill="none" xmlns="http://www.w3.org/2000/svg">
<rect width="24" height="24" fill="#F2F2F2"/>
<g id="2_services_320" clip-path="url(#clip0_0_312)">
<rect width="320" height="1810" transform="translate(-220 -1342)" fill="white"/>
<rect id="background copy" x="-220" y="-1254" width="320" height="1722" fill="#F8F8F8"/>
<g id="&#209;&#134;&#208;&#181;&#208;&#189;&#209;&#139;">
<g id="Group">
<rect id="Rectangle" x="-212" y="-156" width="260" height="200" rx="6" fill="white"/>
<g id="Group 8">
<g id="Group 10">
<rect id="Rectangle_2" x="-87" y="-4" width="119" height="32" rx="16" fill="#FF3E79"/>
<g id="ic/goside">
<rect id="back" width="24" height="24" rx="12" fill="#FF3E79"/>
<path id="dropdown" fill-rule="evenodd" clip-rule="evenodd" d="M12.8 11.9999L9.79155 9.229C9.3641 8.83529 9.36112 8.16138 9.78509 7.76392L9.92029 7.63716C10.3032 7.27818 10.8985 7.27633 11.2836 7.63294L15.9381 11.9426C15.9715 11.9735 15.9715 12.0263 15.9381 12.0572L11.3467 16.3085C10.9261 16.698 10.2758 16.696 9.85755 16.3039C9.39446 15.8697 9.39771 15.1336 9.86462 14.7036L12.8 11.9999Z" fill="white"/>
</g>
</g>
</g>
</g>
</g>
</g>
<defs>
<clipPath id="clip0_0_312">
<rect width="320" height="1810" fill="white" transform="translate(-220 -1342)"/>
</clipPath>
</defs>
</svg>
