<svg width="24" height="28" viewBox="0 0 24 28" fill="none" xmlns="http://www.w3.org/2000/svg">
<rect width="24" height="28" fill="#F2F2F2"/>
<g id="2_services_320" clip-path="url(#clip0_0_312)">
<rect width="320" height="1810" transform="translate(-118 -1590)" fill="white"/>
<rect id="background copy" x="-118" y="-1502" width="320" height="1722" fill="#F8F8F8"/>
<g id="&#209;&#134;&#208;&#181;&#208;&#189;&#209;&#139;">
<g id="Group 28 Copy">
<g id="Group 11">
<path id="&#208;&#159;&#208;&#190;&#208;&#187;&#209;&#131;&#209;&#135;&#208;&#184;&#209;&#130;&#209;&#140; &#208;&#186;&#208;&#190;&#208;&#188;&#208;&#188;&#208;&#181;&#209;&#128;&#209;&#135;&#208;&#181;&#209;&#129;&#208;&#186;&#208;&#190;" d="M-91.68 -17.2C-91.52 -17.2 -91.44 -17.12 -91.44 -16.96V-6.24C-91.44 -6.08 -91.52 -6 -91.68 -6H-92.72C-92.88 -6 -92.96 -6.08 -92.96 -6.24V-15.76H-98.88V-6.24C-98.88 -6.08 -98.96 -6 -99.12 -6H-100.16C-100.32 -6 -100.4 -6.08 -100.4 -6.24V-16.96C-100.4 -17.12 -100.32 -17.2 -100.16 -17.2H-91.68ZM-83.1637 -11.84C-83.1637 -12.2027 -83.2757 -12.4907 -83.4997 -12.704C-83.7131 -12.928 -84.0011 -13.04 -84.3637 -13.04H-86.3637C-86.7264 -13.04 -87.0197 -12.928 -87.2437 -12.704C-87.4571 -12.4907 -87.5637 -12.2027 -87.5637 -11.84V-8.32C-87.5637 -7.95733 -87.4571 -7.664 -87.2437 -7.44C-87.0197 -7.22667 -86.7264 -7.12 -86.3637 -7.12H-84.3637C-84.0011 -7.12 -83.7131 -7.22667 -83.4997 -7.44C-83.2757 -7.664 -83.1637 -7.95733 -83.1637 -8.32V-11.84ZM-81.8037 -8.32C-81.8037 -7.52 -82.0224 -6.90667 -82.4597 -6.48C-82.8864 -6.05333 -83.5211 -5.84 -84.3637 -5.84H-86.3637C-87.2064 -5.84 -87.8464 -6.05333 -88.2837 -6.48C-88.7104 -6.90667 -88.9237 -7.52 -88.9237 -8.32V-11.84C-88.9237 -12.64 -88.7104 -13.2533 -88.2837 -13.68C-87.8464 -14.1067 -87.2064 -14.32 -86.3637 -14.32H-84.3637C-83.5211 -14.32 -82.8864 -14.1067 -82.4597 -13.68C-82.0224 -13.2533 -81.8037 -12.64 -81.8037 -11.84V-8.32ZM-78.0806 -8.16C-78.2406 -7.36 -78.5126 -6.77333 -78.8966 -6.4C-79.2806 -6.02667 -79.8353 -5.84 -80.5606 -5.84H-80.8006C-80.9606 -5.84 -81.0406 -5.92 -81.0406 -6.08V-6.88C-81.0406 -7.04 -80.9606 -7.12 -80.8006 -7.12H-80.5606C-80.2833 -7.12 -80.0486 -7.21067 -79.8566 -7.392C-79.654 -7.57333 -79.5153 -7.82933 -79.4406 -8.16L-78.2406 -13.92C-78.2086 -14.08 -78.0753 -14.16 -77.8406 -14.16H-73.3606C-73.2006 -14.16 -73.1206 -14.08 -73.1206 -13.92V-6.24C-73.1206 -6.08 -73.2006 -6 -73.3606 -6H-74.2406C-74.4006 -6 -74.4806 -6.08 -74.4806 -6.24V-12.88H-77.1206L-78.0806 -8.16ZM-65.6855 -13.92C-65.6535 -14.0053 -65.6108 -14.064 -65.5575 -14.096C-65.4935 -14.1387 -65.4028 -14.16 -65.2855 -14.16H-64.3255C-64.1548 -14.16 -64.1015 -14.08 -64.1655 -13.92L-67.2855 -6C-67.5095 -5.43467 -67.7282 -4.96 -67.9415 -4.576C-68.1548 -4.192 -68.3842 -3.88267 -68.6295 -3.648C-68.8748 -3.40267 -69.1415 -3.22667 -69.4295 -3.12C-69.7175 -3.01333 -70.0428 -2.96 -70.4055 -2.96H-70.7255C-70.8855 -2.96 -70.9655 -3.04 -70.9655 -3.2V-4C-70.9655 -4.16 -70.8855 -4.24 -70.7255 -4.24H-70.4055C-70.0002 -4.24 -69.6695 -4.37333 -69.4135 -4.64C-69.1468 -4.90667 -68.8908 -5.36 -68.6455 -6L-71.7655 -13.92C-71.8295 -14.08 -71.7762 -14.16 -71.6055 -14.16H-70.6455C-70.5282 -14.16 -70.4428 -14.1387 -70.3895 -14.096C-70.3255 -14.064 -70.2775 -14.0053 -70.2455 -13.92L-68.0055 -7.92H-67.9255L-65.6855 -13.92ZM-61.6169 -11.2C-61.6169 -10.8373 -61.5102 -10.544 -61.2969 -10.32C-61.0729 -10.1067 -60.7795 -10 -60.4169 -10H-57.6969V-13.92C-57.6969 -14.08 -57.6169 -14.16 -57.4569 -14.16H-56.5769C-56.4169 -14.16 -56.3369 -14.08 -56.3369 -13.92V-6.24C-56.3369 -6.08 -56.4169 -6 -56.5769 -6H-57.4569C-57.6169 -6 -57.6969 -6.08 -57.6969 -6.24V-8.72H-60.4169C-61.2595 -8.72 -61.8995 -8.93333 -62.3369 -9.36C-62.7635 -9.78667 -62.9769 -10.4 -62.9769 -11.2V-13.92C-62.9769 -14.08 -62.8969 -14.16 -62.7369 -14.16H-61.8569C-61.6969 -14.16 -61.6169 -14.08 -61.6169 -13.92V-11.2ZM-47.25 -14.16C-47.09 -14.16 -47.01 -14.08 -47.01 -13.92V-6.24C-47.01 -6.08 -47.09 -6 -47.25 -6H-48.13C-48.29 -6 -48.37 -6.08 -48.37 -6.24V-12.08H-48.45L-52.29 -6.24C-52.3433 -6.15467 -52.3967 -6.09067 -52.45 -6.048C-52.5033 -6.016 -52.61 -6 -52.77 -6H-53.73C-53.89 -6 -53.97 -6.08 -53.97 -6.24V-13.92C-53.97 -14.08 -53.89 -14.16 -53.73 -14.16H-52.85C-52.69 -14.16 -52.61 -14.08 -52.61 -13.92V-8.08H-52.53L-48.69 -13.92C-48.6367 -14.0053 -48.5833 -14.064 -48.53 -14.096C-48.4767 -14.1387 -48.37 -14.16 -48.21 -14.16H-47.25ZM-42.8144 -6C-42.9744 -6 -43.0544 -6.08 -43.0544 -6.24V-12.88H-45.5344C-45.6944 -12.88 -45.7744 -12.96 -45.7744 -13.12V-13.92C-45.7744 -14.08 -45.6944 -14.16 -45.5344 -14.16H-39.2144C-39.0544 -14.16 -38.9744 -14.08 -38.9744 -13.92V-13.12C-38.9744 -12.96 -39.0544 -12.88 -39.2144 -12.88H-41.6944V-6.24C-41.6944 -6.08 -41.7744 -6 -41.9344 -6H-42.8144ZM-33.5694 -7.28C-33.2494 -7.28 -32.9987 -7.37067 -32.8174 -7.552C-32.6254 -7.744 -32.5294 -8 -32.5294 -8.32V-9.12C-32.5294 -9.44 -32.6254 -9.69067 -32.8174 -9.872C-32.9987 -10.064 -33.2494 -10.16 -33.5694 -10.16H-36.3694V-7.28H-33.5694ZM-37.4894 -6C-37.6494 -6 -37.7294 -6.08 -37.7294 -6.24V-13.92C-37.7294 -14.08 -37.6494 -14.16 -37.4894 -14.16H-36.6094C-36.4494 -14.16 -36.3694 -14.08 -36.3694 -13.92V-11.44H-33.5694C-31.9694 -11.44 -31.1694 -10.6667 -31.1694 -9.12V-8.32C-31.1694 -6.77333 -31.9694 -6 -33.5694 -6H-37.4894ZM-22.7694 -9.68H-24.7694V-6.24C-24.7694 -6.08 -24.8494 -6 -25.0094 -6H-25.8894C-26.0494 -6 -26.1294 -6.08 -26.1294 -6.24V-13.92C-26.1294 -14.08 -26.0494 -14.16 -25.8894 -14.16H-25.0094C-24.8494 -14.16 -24.7694 -14.08 -24.7694 -13.92V-10.96H-22.7694L-21.1694 -13.92C-21.1267 -14.0053 -21.0787 -14.064 -21.0254 -14.096C-20.972 -14.1387 -20.8867 -14.16 -20.7694 -14.16H-19.8094C-19.628 -14.16 -19.5747 -14.08 -19.6494 -13.92L-21.6494 -10.32L-19.4094 -6.24C-19.3347 -6.08 -19.388 -6 -19.5694 -6H-20.5294C-20.6467 -6 -20.732 -6.016 -20.7854 -6.048C-20.8387 -6.09067 -20.8867 -6.15467 -20.9294 -6.24L-22.7694 -9.68ZM-12.5262 -11.84C-12.5262 -12.2027 -12.6382 -12.4907 -12.8622 -12.704C-13.0756 -12.928 -13.3636 -13.04 -13.7262 -13.04H-15.7262C-16.0889 -13.04 -16.3822 -12.928 -16.6062 -12.704C-16.8196 -12.4907 -16.9262 -12.2027 -16.9262 -11.84V-8.32C-16.9262 -7.95733 -16.8196 -7.664 -16.6062 -7.44C-16.3822 -7.22667 -16.0889 -7.12 -15.7262 -7.12H-13.7262C-13.3636 -7.12 -13.0756 -7.22667 -12.8622 -7.44C-12.6382 -7.664 -12.5262 -7.95733 -12.5262 -8.32V-11.84ZM-11.1662 -8.32C-11.1662 -7.52 -11.3849 -6.90667 -11.8222 -6.48C-12.2489 -6.05333 -12.8836 -5.84 -13.7262 -5.84H-15.7262C-16.5689 -5.84 -17.2089 -6.05333 -17.6462 -6.48C-18.0729 -6.90667 -18.2862 -7.52 -18.2862 -8.32V-11.84C-18.2862 -12.64 -18.0729 -13.2533 -17.6462 -13.68C-17.2089 -14.1067 -16.5689 -14.32 -15.7262 -14.32H-13.7262C-12.8836 -14.32 -12.2489 -14.1067 -11.8222 -13.68C-11.3849 -13.2533 -11.1662 -12.64 -11.1662 -11.84V-8.32ZM-4.32687 -7.76L-1.44687 -13.92C-1.40421 -14.0053 -1.3562 -14.064 -1.30287 -14.096C-1.23887 -14.1387 -1.12687 -14.16 -0.966871 -14.16H-0.00687122C0.153129 -14.16 0.233129 -14.08 0.233129 -13.92V-6.24C0.233129 -6.08 0.153129 -6 -0.00687122 -6H-0.886871C-1.04687 -6 -1.12687 -6.08 -1.12687 -6.24V-11.52H-1.20687L-3.68687 -6.24C-3.72954 -6.15467 -3.78287 -6.09067 -3.84687 -6.048C-3.90021 -6.016 -4.00687 -6 -4.16687 -6H-4.56687C-4.72687 -6 -4.83887 -6.016 -4.90287 -6.048C-4.9562 -6.09067 -5.0042 -6.15467 -5.04687 -6.24L-7.52687 -11.52H-7.60687V-6.24C-7.60687 -6.08 -7.68687 -6 -7.84687 -6H-8.72687C-8.88687 -6 -8.96687 -6.08 -8.96687 -6.24V-13.92C-8.96687 -14.08 -8.88687 -14.16 -8.72687 -14.16H-7.76687C-7.60687 -14.16 -7.50021 -14.1387 -7.44687 -14.096C-7.38287 -14.064 -7.32954 -14.0053 -7.28687 -13.92L-4.40687 -7.76H-4.32687ZM7.23875 -7.76L10.1187 -13.92C10.1614 -14.0053 10.2094 -14.064 10.2627 -14.096C10.3267 -14.1387 10.4387 -14.16 10.5987 -14.16H11.5587C11.7187 -14.16 11.7987 -14.08 11.7987 -13.92V-6.24C11.7987 -6.08 11.7187 -6 11.5587 -6H10.6787C10.5187 -6 10.4387 -6.08 10.4387 -6.24V-11.52H10.3587L7.87875 -6.24C7.83608 -6.15467 7.78275 -6.09067 7.71875 -6.048C7.66542 -6.016 7.55875 -6 7.39875 -6H6.99875C6.83875 -6 6.72675 -6.016 6.66275 -6.048C6.60942 -6.09067 6.56142 -6.15467 6.51875 -6.24L4.03875 -11.52H3.95875V-6.24C3.95875 -6.08 3.87875 -6 3.71875 -6H2.83875C2.67875 -6 2.59875 -6.08 2.59875 -6.24V-13.92C2.59875 -14.08 2.67875 -14.16 2.83875 -14.16H3.79875C3.95875 -14.16 4.06542 -14.1387 4.11875 -14.096C4.18275 -14.064 4.23608 -14.0053 4.27875 -13.92L7.15875 -7.76H7.23875ZM19.6844 -10.8V-11.84C19.6844 -12.2027 19.5724 -12.4907 19.3484 -12.704C19.135 -12.928 18.847 -13.04 18.4844 -13.04H16.5644C16.2017 -13.04 15.9084 -12.928 15.6844 -12.704C15.471 -12.4907 15.3644 -12.2027 15.3644 -11.84V-10.8H19.6844ZM15.3644 -9.52V-8.32C15.3644 -7.95733 15.471 -7.664 15.6844 -7.44C15.9084 -7.22667 16.2017 -7.12 16.5644 -7.12H18.4844C18.847 -7.12 19.135 -7.22667 19.3484 -7.44C19.5724 -7.664 19.6844 -7.95733 19.6844 -8.32V-8.4C19.6844 -8.56 19.7644 -8.64 19.9244 -8.64H20.8044C20.9644 -8.64 21.0444 -8.56 21.0444 -8.4V-8.32C21.0444 -7.52 20.8257 -6.90667 20.3884 -6.48C19.9617 -6.05333 19.327 -5.84 18.4844 -5.84H16.5644C15.7217 -5.84 15.0817 -6.05333 14.6444 -6.48C14.2177 -6.90667 14.0044 -7.52 14.0044 -8.32V-11.84C14.0044 -12.64 14.2177 -13.2533 14.6444 -13.68C15.0817 -14.1067 15.7217 -14.32 16.5644 -14.32H18.4844C19.327 -14.32 19.9617 -14.1067 20.3884 -13.68C20.8257 -13.2533 21.0444 -12.64 21.0444 -11.84V-9.76C21.0444 -9.6 20.9644 -9.52 20.8044 -9.52H15.3644ZM27.6456 -7.28C28.0083 -7.28 28.2963 -7.38667 28.5096 -7.6C28.7336 -7.824 28.8456 -8.11733 28.8456 -8.48V-11.84C28.8456 -12.2027 28.7336 -12.4907 28.5096 -12.704C28.2963 -12.928 28.0083 -13.04 27.6456 -13.04H26.2856C25.8056 -13.04 25.4056 -12.88 25.0856 -12.56C24.7656 -12.24 24.6056 -11.84 24.6056 -11.36V-7.28H27.6456ZM24.6056 -6V-3.2C24.6056 -3.04 24.5256 -2.96 24.3656 -2.96H23.4856C23.3256 -2.96 23.2456 -3.04 23.2456 -3.2V-13.92C23.2456 -14.08 23.3256 -14.16 23.4856 -14.16H24.3656C24.5256 -14.16 24.6056 -14.08 24.6056 -13.92V-13.36H24.6856C24.771 -13.5413 24.8936 -13.7013 25.0536 -13.84C25.1923 -13.9573 25.3736 -14.064 25.5976 -14.16C25.8216 -14.2667 26.1043 -14.32 26.4456 -14.32H27.6456C28.4883 -14.32 29.123 -14.1067 29.5496 -13.68C29.987 -13.2533 30.2056 -12.64 30.2056 -11.84V-8.48C30.2056 -7.68 29.987 -7.06667 29.5496 -6.64C29.123 -6.21333 28.4883 -6 27.6456 -6H24.6056ZM33.605 -11.2C33.605 -10.8373 33.7117 -10.544 33.925 -10.32C34.149 -10.1067 34.4423 -10 34.805 -10H37.525V-13.92C37.525 -14.08 37.605 -14.16 37.765 -14.16H38.645C38.805 -14.16 38.885 -14.08 38.885 -13.92V-6.24C38.885 -6.08 38.805 -6 38.645 -6H37.765C37.605 -6 37.525 -6.08 37.525 -6.24V-8.72H34.805C33.9623 -8.72 33.3223 -8.93333 32.885 -9.36C32.4583 -9.78667 32.245 -10.4 32.245 -11.2V-13.92C32.245 -14.08 32.325 -14.16 32.485 -14.16H33.365C33.525 -14.16 33.605 -14.08 33.605 -13.92V-11.2ZM46.7719 -10.8V-11.84C46.7719 -12.2027 46.6599 -12.4907 46.4359 -12.704C46.2225 -12.928 45.9345 -13.04 45.5719 -13.04H43.6519C43.2892 -13.04 42.9959 -12.928 42.7719 -12.704C42.5585 -12.4907 42.4519 -12.2027 42.4519 -11.84V-10.8H46.7719ZM42.4519 -9.52V-8.32C42.4519 -7.95733 42.5585 -7.664 42.7719 -7.44C42.9959 -7.22667 43.2892 -7.12 43.6519 -7.12H45.5719C45.9345 -7.12 46.2225 -7.22667 46.4359 -7.44C46.6599 -7.664 46.7719 -7.95733 46.7719 -8.32V-8.4C46.7719 -8.56 46.8519 -8.64 47.0119 -8.64H47.8919C48.0519 -8.64 48.1319 -8.56 48.1319 -8.4V-8.32C48.1319 -7.52 47.9132 -6.90667 47.4759 -6.48C47.0492 -6.05333 46.4145 -5.84 45.5719 -5.84H43.6519C42.8092 -5.84 42.1692 -6.05333 41.7319 -6.48C41.3052 -6.90667 41.0919 -7.52 41.0919 -8.32V-11.84C41.0919 -12.64 41.3052 -13.2533 41.7319 -13.68C42.1692 -14.1067 42.8092 -14.32 43.6519 -14.32H45.5719C46.4145 -14.32 47.0492 -14.1067 47.4759 -13.68C47.9132 -13.2533 48.1319 -12.64 48.1319 -11.84V-9.76C48.1319 -9.6 48.0519 -9.52 47.8919 -9.52H42.4519ZM51.5331 -8.32C51.5331 -7.95733 51.6398 -7.664 51.8531 -7.44C52.0771 -7.22667 52.3705 -7.12 52.7331 -7.12H54.5731C54.9358 -7.12 55.2238 -7.22667 55.4371 -7.44C55.6611 -7.664 55.7731 -7.95733 55.7731 -8.32V-8.72C55.7731 -8.88 55.8531 -8.96 56.0131 -8.96H56.8931C57.0531 -8.96 57.1331 -8.88 57.1331 -8.72V-8.32C57.1331 -7.52 56.9145 -6.90667 56.4771 -6.48C56.0505 -6.05333 55.4158 -5.84 54.5731 -5.84H52.7331C51.8905 -5.84 51.2505 -6.05333 50.8131 -6.48C50.3865 -6.90667 50.1731 -7.52 50.1731 -8.32V-11.84C50.1731 -12.64 50.3865 -13.2533 50.8131 -13.68C51.2505 -14.1067 51.8905 -14.32 52.7331 -14.32H54.5731C55.4158 -14.32 56.0505 -14.1067 56.4771 -13.68C56.9145 -13.2533 57.1331 -12.64 57.1331 -11.84V-11.44C57.1331 -11.28 57.0531 -11.2 56.8931 -11.2H56.0131C55.8531 -11.2 55.7731 -11.28 55.7731 -11.44V-11.84C55.7731 -12.2027 55.6611 -12.4907 55.4371 -12.704C55.2238 -12.928 54.9358 -13.04 54.5731 -13.04H52.7331C52.3705 -13.04 52.0771 -12.928 51.8531 -12.704C51.6398 -12.4907 51.5331 -12.2027 51.5331 -11.84V-8.32ZM62.54 -9.68H60.54V-6.24C60.54 -6.08 60.46 -6 60.3 -6H59.42C59.26 -6 59.18 -6.08 59.18 -6.24V-13.92C59.18 -14.08 59.26 -14.16 59.42 -14.16H60.3C60.46 -14.16 60.54 -14.08 60.54 -13.92V-10.96H62.54L64.14 -13.92C64.1827 -14.0053 64.2307 -14.064 64.284 -14.096C64.3373 -14.1387 64.4227 -14.16 64.54 -14.16H65.5C65.6813 -14.16 65.7347 -14.08 65.66 -13.92L63.66 -10.32L65.9 -6.24C65.9747 -6.08 65.9213 -6 65.74 -6H64.78C64.6627 -6 64.5773 -6.016 64.524 -6.048C64.4707 -6.09067 64.4227 -6.15467 64.38 -6.24L62.54 -9.68ZM72.7831 -11.84C72.7831 -12.2027 72.6711 -12.4907 72.4471 -12.704C72.2338 -12.928 71.9458 -13.04 71.5831 -13.04H69.5831C69.2205 -13.04 68.9271 -12.928 68.7031 -12.704C68.4898 -12.4907 68.3831 -12.2027 68.3831 -11.84V-8.32C68.3831 -7.95733 68.4898 -7.664 68.7031 -7.44C68.9271 -7.22667 69.2205 -7.12 69.5831 -7.12H71.5831C71.9458 -7.12 72.2338 -7.22667 72.4471 -7.44C72.6711 -7.664 72.7831 -7.95733 72.7831 -8.32V-11.84ZM74.1431 -8.32C74.1431 -7.52 73.9245 -6.90667 73.4871 -6.48C73.0605 -6.05333 72.4258 -5.84 71.5831 -5.84H69.5831C68.7405 -5.84 68.1005 -6.05333 67.6631 -6.48C67.2365 -6.90667 67.0231 -7.52 67.0231 -8.32V-11.84C67.0231 -12.64 67.2365 -13.2533 67.6631 -13.68C68.1005 -14.1067 68.7405 -14.32 69.5831 -14.32H71.5831C72.4258 -14.32 73.0605 -14.1067 73.4871 -13.68C73.9245 -13.2533 74.1431 -12.64 74.1431 -11.84V-8.32ZM81.8625 -10.8V-11.84C81.8625 -12.2027 81.7505 -12.4907 81.5265 -12.704C81.3132 -12.928 81.0252 -13.04 80.6625 -13.04H78.7425C78.3798 -13.04 78.0865 -12.928 77.8625 -12.704C77.6492 -12.4907 77.5425 -12.2027 77.5425 -11.84V-10.8H81.8625ZM77.5425 -9.52V-8.32C77.5425 -7.95733 77.6492 -7.664 77.8625 -7.44C78.0865 -7.22667 78.3798 -7.12 78.7425 -7.12H80.6625C81.0252 -7.12 81.3132 -7.22667 81.5265 -7.44C81.7505 -7.664 81.8625 -7.95733 81.8625 -8.32V-8.4C81.8625 -8.56 81.9425 -8.64 82.1025 -8.64H82.9825C83.1425 -8.64 83.2225 -8.56 83.2225 -8.4V-8.32C83.2225 -7.52 83.0038 -6.90667 82.5665 -6.48C82.1398 -6.05333 81.5052 -5.84 80.6625 -5.84H78.7425C77.8998 -5.84 77.2598 -6.05333 76.8225 -6.48C76.3958 -6.90667 76.1825 -7.52 76.1825 -8.32V-11.84C76.1825 -12.64 76.3958 -13.2533 76.8225 -13.68C77.2598 -14.1067 77.8998 -14.32 78.7425 -14.32H80.6625C81.5052 -14.32 82.1398 -14.1067 82.5665 -13.68C83.0038 -13.2533 83.2225 -12.64 83.2225 -11.84V-9.76C83.2225 -9.6 83.1425 -9.52 82.9825 -9.52H77.5425ZM-95.04 18C-95.2 18 -95.28 17.92 -95.28 17.76V11.12H-99.36V17.76C-99.36 17.92 -99.44 18 -99.6 18H-100.48C-100.64 18 -100.72 17.92 -100.72 17.76V10.08C-100.72 9.92 -100.64 9.84 -100.48 9.84H-94.16C-94 9.84 -93.92 9.92 -93.92 10.08V17.76C-93.92 17.92 -94 18 -94.16 18H-95.04ZM-87.1606 16.72C-86.798 16.72 -86.51 16.6133 -86.2966 16.4C-86.0726 16.176 -85.9606 15.8827 -85.9606 15.52V12.16C-85.9606 11.7973 -86.0726 11.5093 -86.2966 11.296C-86.51 11.072 -86.798 10.96 -87.1606 10.96H-88.5206C-89.0006 10.96 -89.4006 11.12 -89.7206 11.44C-90.0406 11.76 -90.2006 12.16 -90.2006 12.64V16.72H-87.1606ZM-90.2006 18V20.8C-90.2006 20.96 -90.2806 21.04 -90.4406 21.04H-91.3206C-91.4806 21.04 -91.5606 20.96 -91.5606 20.8V10.08C-91.5606 9.92 -91.4806 9.84 -91.3206 9.84H-90.4406C-90.2806 9.84 -90.2006 9.92 -90.2006 10.08V10.64H-90.1206C-90.0353 10.4587 -89.9126 10.2987 -89.7526 10.16C-89.614 10.0427 -89.4326 9.936 -89.2086 9.84C-88.9846 9.73333 -88.702 9.68 -88.3606 9.68H-87.1606C-86.318 9.68 -85.6833 9.89333 -85.2566 10.32C-84.8193 10.7467 -84.6006 11.36 -84.6006 12.16V15.52C-84.6006 16.32 -84.8193 16.9333 -85.2566 17.36C-85.6833 17.7867 -86.318 18 -87.1606 18H-90.2006ZM-76.8812 13.2V12.16C-76.8812 11.7973 -76.9932 11.5093 -77.2172 11.296C-77.4306 11.072 -77.7186 10.96 -78.0812 10.96H-80.0012C-80.3639 10.96 -80.6572 11.072 -80.8812 11.296C-81.0946 11.5093 -81.2012 11.7973 -81.2012 12.16V13.2H-76.8812ZM-81.2012 14.48V15.68C-81.2012 16.0427 -81.0946 16.336 -80.8812 16.56C-80.6572 16.7733 -80.3639 16.88 -80.0012 16.88H-78.0812C-77.7186 16.88 -77.4306 16.7733 -77.2172 16.56C-76.9932 16.336 -76.8812 16.0427 -76.8812 15.68V15.6C-76.8812 15.44 -76.8012 15.36 -76.6412 15.36H-75.7612C-75.6012 15.36 -75.5212 15.44 -75.5212 15.6V15.68C-75.5212 16.48 -75.7399 17.0933 -76.1772 17.52C-76.6039 17.9467 -77.2386 18.16 -78.0812 18.16H-80.0012C-80.8439 18.16 -81.4839 17.9467 -81.9212 17.52C-82.3479 17.0933 -82.5612 16.48 -82.5612 15.68V12.16C-82.5612 11.36 -82.3479 10.7467 -81.9212 10.32C-81.4839 9.89333 -80.8439 9.68 -80.0012 9.68H-78.0812C-77.2386 9.68 -76.6039 9.89333 -76.1772 10.32C-75.7399 10.7467 -75.5212 11.36 -75.5212 12.16V14.24C-75.5212 14.4 -75.6012 14.48 -75.7612 14.48H-81.2012ZM-68.52 11.12H-71.16L-72.28 16.72H-68.52V11.12ZM-67.16 16.72H-66.36C-66.2 16.72 -66.12 16.8 -66.12 16.96V19.52C-66.12 19.68 -66.2 19.76 -66.36 19.76H-67.24C-67.4 19.76 -67.48 19.68 -67.48 19.52V18H-73.24V19.52C-73.24 19.68 -73.32 19.76 -73.48 19.76H-74.36C-74.52 19.76 -74.6 19.68 -74.6 19.52V16.96C-74.6 16.8 -74.52 16.72 -74.36 16.72H-73.64L-72.28 10.08C-72.248 9.92 -72.1147 9.84 -71.88 9.84H-67.4C-67.24 9.84 -67.16 9.92 -67.16 10.08V16.72ZM-62.8869 15.84C-63.0469 16.64 -63.3189 17.2267 -63.7029 17.6C-64.0869 17.9733 -64.6415 18.16 -65.3669 18.16H-65.6069C-65.7669 18.16 -65.8469 18.08 -65.8469 17.92V17.12C-65.8469 16.96 -65.7669 16.88 -65.6069 16.88H-65.3669C-65.0895 16.88 -64.8549 16.7893 -64.6629 16.608C-64.4602 16.4267 -64.3215 16.1707 -64.2469 15.84L-63.0469 10.08C-63.0149 9.92 -62.8815 9.84 -62.6469 9.84H-58.1669C-58.0069 9.84 -57.9269 9.92 -57.9269 10.08V17.76C-57.9269 17.92 -58.0069 18 -58.1669 18H-59.0469C-59.2069 18 -59.2869 17.92 -59.2869 17.76V11.12H-61.9269L-62.8869 15.84ZM-49.9637 12.16C-49.9637 11.7973 -50.0757 11.5093 -50.2997 11.296C-50.5131 11.072 -50.8011 10.96 -51.1637 10.96H-53.1637C-53.5264 10.96 -53.8197 11.072 -54.0437 11.296C-54.2571 11.5093 -54.3637 11.7973 -54.3637 12.16V15.68C-54.3637 16.0427 -54.2571 16.336 -54.0437 16.56C-53.8197 16.7733 -53.5264 16.88 -53.1637 16.88H-51.1637C-50.8011 16.88 -50.5131 16.7733 -50.2997 16.56C-50.0757 16.336 -49.9637 16.0427 -49.9637 15.68V12.16ZM-48.6037 15.68C-48.6037 16.48 -48.8224 17.0933 -49.2597 17.52C-49.6864 17.9467 -50.3211 18.16 -51.1637 18.16H-53.1637C-54.0064 18.16 -54.6464 17.9467 -55.0837 17.52C-55.5104 17.0933 -55.7237 16.48 -55.7237 15.68V12.16C-55.7237 11.36 -55.5104 10.7467 -55.0837 10.32C-54.6464 9.89333 -54.0064 9.68 -53.1637 9.68H-51.1637C-50.3211 9.68 -49.6864 9.89333 -49.2597 10.32C-48.8224 10.7467 -48.6037 11.36 -48.6037 12.16V15.68ZM-39.5724 14.32H-41.0924V17.76C-41.0924 17.92 -41.1724 18 -41.3324 18H-42.2124C-42.3724 18 -42.4524 17.92 -42.4524 17.76V14.32H-43.9724L-45.8124 17.76C-45.855 17.8453 -45.903 17.9093 -45.9564 17.952C-46.0097 17.984 -46.095 18 -46.2124 18H-47.1724C-47.2577 18 -47.3164 17.984 -47.3484 17.952C-47.3804 17.9093 -47.375 17.8453 -47.3324 17.76L-45.0924 13.68L-47.0924 10.08C-47.135 9.99467 -47.1404 9.936 -47.1084 9.904C-47.0764 9.86133 -47.0177 9.84 -46.9324 9.84H-45.9724C-45.855 9.84 -45.7697 9.86133 -45.7164 9.904C-45.663 9.936 -45.615 9.99467 -45.5724 10.08L-43.9724 13.04H-42.4524V10.08C-42.4524 9.92 -42.3724 9.84 -42.2124 9.84H-41.3324C-41.1724 9.84 -41.0924 9.92 -41.0924 10.08V13.04H-39.5724L-37.9724 10.08C-37.9297 9.99467 -37.8817 9.936 -37.8284 9.904C-37.775 9.86133 -37.6897 9.84 -37.5724 9.84H-36.6124C-36.431 9.84 -36.3777 9.92 -36.4524 10.08L-38.4524 13.68L-36.2124 17.76C-36.1377 17.92 -36.191 18 -36.3724 18H-37.3324C-37.4497 18 -37.535 17.984 -37.5884 17.952C-37.6417 17.9093 -37.6897 17.8453 -37.7324 17.76L-39.5724 14.32ZM-29.4125 13.2V12.16C-29.4125 11.7973 -29.5245 11.5093 -29.7485 11.296C-29.9618 11.072 -30.2498 10.96 -30.6125 10.96H-32.5325C-32.8952 10.96 -33.1885 11.072 -33.4125 11.296C-33.6258 11.5093 -33.7325 11.7973 -33.7325 12.16V13.2H-29.4125ZM-33.7325 14.48V15.68C-33.7325 16.0427 -33.6258 16.336 -33.4125 16.56C-33.1885 16.7733 -32.8952 16.88 -32.5325 16.88H-30.6125C-30.2498 16.88 -29.9618 16.7733 -29.7485 16.56C-29.5245 16.336 -29.4125 16.0427 -29.4125 15.68V15.6C-29.4125 15.44 -29.3325 15.36 -29.1725 15.36H-28.2925C-28.1325 15.36 -28.0525 15.44 -28.0525 15.6V15.68C-28.0525 16.48 -28.2712 17.0933 -28.7085 17.52C-29.1352 17.9467 -29.7698 18.16 -30.6125 18.16H-32.5325C-33.3752 18.16 -34.0152 17.9467 -34.4525 17.52C-34.8792 17.0933 -35.0925 16.48 -35.0925 15.68V12.16C-35.0925 11.36 -34.8792 10.7467 -34.4525 10.32C-34.0152 9.89333 -33.3752 9.68 -32.5325 9.68H-30.6125C-29.7698 9.68 -29.1352 9.89333 -28.7085 10.32C-28.2712 10.7467 -28.0525 11.36 -28.0525 12.16V14.24C-28.0525 14.4 -28.1325 14.48 -28.2925 14.48H-33.7325ZM-24.4912 14.48V17.76C-24.4912 17.92 -24.5712 18 -24.7312 18H-25.6112C-25.7712 18 -25.8512 17.92 -25.8512 17.76V10.08C-25.8512 9.92 -25.7712 9.84 -25.6112 9.84H-24.7312C-24.5712 9.84 -24.4912 9.92 -24.4912 10.08V13.28H-20.4112V10.08C-20.4112 9.92 -20.3312 9.84 -20.1712 9.84H-19.2912C-19.1312 9.84 -19.0512 9.92 -19.0512 10.08V17.76C-19.0512 17.92 -19.1312 18 -19.2912 18H-20.1712C-20.3312 18 -20.4112 17.92 -20.4112 17.76V14.48H-24.4912ZM-9.97188 9.84C-9.81188 9.84 -9.73188 9.92 -9.73188 10.08V17.76C-9.73188 17.92 -9.81188 18 -9.97188 18H-10.8519C-11.0119 18 -11.0919 17.92 -11.0919 17.76V11.92H-11.1719L-15.0119 17.76C-15.0652 17.8453 -15.1185 17.9093 -15.1719 17.952C-15.2252 17.984 -15.3319 18 -15.4919 18H-16.4519C-16.6119 18 -16.6919 17.92 -16.6919 17.76V10.08C-16.6919 9.92 -16.6119 9.84 -16.4519 9.84H-15.5719C-15.4119 9.84 -15.3319 9.92 -15.3319 10.08V15.92H-15.2519L-11.4119 10.08C-11.3585 9.99467 -11.3052 9.936 -11.2519 9.904C-11.1985 9.86133 -11.0919 9.84 -10.9319 9.84H-9.97188ZM-1.85625 13.2V12.16C-1.85625 11.7973 -1.96825 11.5093 -2.19225 11.296C-2.40558 11.072 -2.69358 10.96 -3.05625 10.96H-4.97625C-5.33892 10.96 -5.63225 11.072 -5.85625 11.296C-6.06958 11.5093 -6.17625 11.7973 -6.17625 12.16V13.2H-1.85625ZM-6.17625 14.48V15.68C-6.17625 16.0427 -6.06958 16.336 -5.85625 16.56C-5.63225 16.7733 -5.33892 16.88 -4.97625 16.88H-3.05625C-2.69358 16.88 -2.40558 16.7733 -2.19225 16.56C-1.96825 16.336 -1.85625 16.0427 -1.85625 15.68V15.6C-1.85625 15.44 -1.77625 15.36 -1.61625 15.36H-0.736249C-0.576249 15.36 -0.496249 15.44 -0.496249 15.6V15.68C-0.496249 16.48 -0.714916 17.0933 -1.15225 17.52C-1.57892 17.9467 -2.21358 18.16 -3.05625 18.16H-4.97625C-5.81892 18.16 -6.45892 17.9467 -6.89625 17.52C-7.32292 17.0933 -7.53625 16.48 -7.53625 15.68V12.16C-7.53625 11.36 -7.32292 10.7467 -6.89625 10.32C-6.45892 9.89333 -5.81892 9.68 -4.97625 9.68H-3.05625C-2.21358 9.68 -1.57892 9.89333 -1.15225 10.32C-0.714916 10.7467 -0.496249 11.36 -0.496249 12.16V14.24C-0.496249 14.4 -0.576249 14.48 -0.736249 14.48H-6.17625Z" fill="#1B1C21"/>
<g id="ic/more">
<path id="Line" fill-rule="evenodd" clip-rule="evenodd" d="M9.1625 17.6041C8.83819 17.9796 8.83819 18.536 9.1625 18.9115L9.29432 19.0641C9.69317 19.5258 10.409 19.5258 10.8078 19.0641L14.8372 14.3994C15.1615 14.0239 15.1615 13.4675 14.8372 13.092L10.8078 8.42728C10.409 7.96553 9.69317 7.96553 9.29432 8.42728L9.1625 8.57988C8.83819 8.95533 8.83819 9.5118 9.1625 9.88726L12.4954 13.7457L9.1625 17.6041Z" fill="#FF3E79"/>
</g>
</g>
</g>
</g>
</g>
<defs>
<clipPath id="clip0_0_312">
<rect width="320" height="1810" fill="white" transform="translate(-118 -1590)"/>
</clipPath>
</defs>
</svg>
